<?xml version="1.0" encoding="utf-8"?>
<!-- Svg Vector Icons : http://www.onlinewebfonts.com/icon -->
<!DOCTYPE svg PUBLIC "-//W3C//DTD SVG 1.1//EN" "http://www.w3.org/Graphics/SVG/1.1/DTD/svg11.dtd">
<svg version="1.1" xmlns="http://www.w3.org/2000/svg" xmlns:xlink="http://www.w3.org/1999/xlink" x="0px" y="0px" viewBox="0 0 1000 1000" enable-background="new 0 0 1000 1000" xml:space="preserve">
<metadata> Svg Vector Icons : http://www.onlinewebfonts.com/icon </metadata>
<g><path d="M853.8,277.3h-94.4v377.9c0,75-61.3,135.7-135.7,135.7h-315v31.5c0,75.8,61,136.2,136.2,136.2h408.8c75.8,0,136.2-61,136.2-136.2V413.5C990,337.7,929,277.3,853.8,277.3z"/><path d="M555.1,41.4H146.2C70.5,41.4,10,102.4,10,177.7v408.8c0,75.8,61,136.2,136.2,136.2h408.8c75.8,0,136.2-61,136.2-136.2V177.7C691.3,101.9,630.3,41.4,555.1,41.4z"/></g>
</svg>