<?xml version="1.0" encoding="utf-8"?>
<!-- Svg Vector Icons : http://www.onlinewebfonts.com/icon -->
<!DOCTYPE svg PUBLIC "-//W3C//DTD SVG 1.1//EN" "http://www.w3.org/Graphics/SVG/1.1/DTD/svg11.dtd">
<svg version="1.1" xmlns="http://www.w3.org/2000/svg" xmlns:xlink="http://www.w3.org/1999/xlink" x="0px" y="0px" viewBox="0 0 1000 1000" enable-background="new 0 0 1000 1000" xml:space="preserve">
<metadata> Svg Vector Icons : http://www.onlinewebfonts.com/icon </metadata>
<g><path d="M292.6,425.6c-31.2,0-56.6,25.3-56.6,56.6c0,31.2,25.3,56.6,56.6,56.6c31.2,0,56.6-25.3,56.6-56.6C349.2,450.8,323.9,425.6,292.6,425.6z M501.6,425.6c-31.2,0-56.6,25.3-56.6,56.6c0,31.2,25.3,56.6,56.6,56.6c31.2,0,56.6-25.3,56.6-56.6C558.1,451,532.8,425.6,501.6,425.6z M928.8,736.4c105.3-190.7,72.5-428.5-82.3-583.2C655.5-38,344.5-38,153.3,153.2c-191.1,191.1-191.1,502.1,0,693.2c95.2,95.2,220.7,143.8,346.7,143.8c101.7,0,203.7-31.6,290.5-95.7l124.1,27c12.5,2.7,25.6-1.1,34.6-10.1c9.1-9.1,13-22.2,10.1-34.6L928.8,736.4z M852.1,738.2l21.2,97.1l-83.8-18.3c-11.1-2.5-22.6,0.2-31.6,7.3C593,955.8,356,942.3,206.7,793c-161.7-161.7-161.7-424.9,0-586.6c80.8-80.8,187-121.3,293.3-121.3c106.3,0,212.5,40.4,293.3,121.3c134,134,159.9,341.4,63.2,504.5C851.7,719.1,850,728.9,852.1,738.2z M707.4,425.6c-31.2,0-56.6,25.3-56.6,56.6c0,31.2,25.3,56.6,56.6,56.6c31.2,0,56.6-25.3,56.6-56.6C764,450.8,738.7,425.6,707.4,425.6z"/></g>
</svg>