<?xml version="1.0" encoding="utf-8"?>
<!-- Svg Vector Icons : http://www.onlinewebfonts.com/icon -->
<!DOCTYPE svg PUBLIC "-//W3C//DTD SVG 1.1//EN" "http://www.w3.org/Graphics/SVG/1.1/DTD/svg11.dtd">
<svg version="1.1" xmlns="http://www.w3.org/2000/svg" xmlns:xlink="http://www.w3.org/1999/xlink" x="0px" y="0px" viewBox="0 0 1000 1000" enable-background="new 0 0 1000 1000" xml:space="preserve">
<metadata> Svg Vector Icons : http://www.onlinewebfonts.com/icon </metadata>
<g><path d="M76,325c-17.3,0-24.7-7.3-22-22c2.7-6.7,6.7-11.3,12-14c1.3,0,17.7-5.7,49-17s62.3-22,93-32c30.7-10,50-15,58-15h44V75h380v150h46c8,0,27,5,57,15c30,10,60.7,20.7,92,32s47.7,17,49,17c12,5.3,16,14,12,26c-2.7,6.7-9.3,10-20,10H76L76,325 M936,381c13.3,0,25.7,6.3,37,19s17,26.3,17,41v174c0,14.7-5.7,28.3-17,41c-11.3,12.7-23.7,19-37,19H836l44,250H120l44-250H66c-13.3,0-26-6.3-38-19c-12-12.7-18-26.3-18-41V441c0-14.7,6-28.3,18-41s24.7-19,38-19H936L936,381 M220,825h560l-70-324H290L220,825"/></g>
</svg>