<?xml version="1.0" encoding="utf-8"?>
<!-- Svg Vector Icons : http://www.onlinewebfonts.com/icon -->
<!DOCTYPE svg PUBLIC "-//W3C//DTD SVG 1.1//EN" "http://www.w3.org/Graphics/SVG/1.1/DTD/svg11.dtd">
<svg version="1.1" xmlns="http://www.w3.org/2000/svg" xmlns:xlink="http://www.w3.org/1999/xlink" x="0px" y="0px" viewBox="0 0 1000 1000" enable-background="new 0 0 1000 1000" xml:space="preserve">
<metadata> Svg Vector Icons : http://www.onlinewebfonts.com/icon </metadata>
<g><path d="M785.8,358.2c112.8,0,204.2,91.4,204.2,204.2s-92.7,202-206.3,202H577.4V609.6h103.2L525.8,454.9L371.1,609.6h103.2v154.7H113.2C56.8,764.3,10,720.8,10,664.4c0-50,35.9-91.6,83.4-100.4l-1.7-22.1c0-76.7,60.5-139.4,136.4-142.8c33.6-95.2,124.4-163.5,231.1-163.5c101.3,0,188.3,61.5,225.6,149.2C714.6,367.9,749.1,358.2,785.8,358.2z"/></g>
</svg>